<svg id="svg" version="1.1" xmlns="http://www.w3.org/2000/svg" xmlns:xlink="http://www.w3.org/1999/xlink" width="400" height="400" viewBox="0, 0, 400,400"><g id="svgg"><path id="path0" d="M146.278 0.746 C 146.132 0.891,144.709 2.977,143.115 5.380 C 141.521 7.784,136.343 15.580,131.609 22.707 C 126.874 29.833,123.000 35.733,123.000 35.818 C 123.000 35.903,122.936 35.997,122.857 36.028 C 122.653 36.107,110.447 54.456,109.945 55.437 C 109.551 56.207,107.640 58.760,106.093 60.583 C 105.704 61.042,104.987 61.979,104.500 62.667 C 104.013 63.354,103.306 64.262,102.928 64.685 C 102.550 65.107,101.582 66.302,100.775 67.339 C 99.664 68.769,98.919 69.528,97.696 70.480 C 93.078 74.074,87.294 79.229,82.920 83.650 C 80.864 85.727,80.897 85.714,79.732 84.930 C 79.266 84.616,78.254 84.026,77.484 83.619 C 74.571 82.080,73.890 81.707,73.208 81.276 C 72.822 81.033,72.477 80.833,72.441 80.833 C 72.405 80.833,71.639 80.416,70.738 79.905 C 69.836 79.395,69.020 78.964,68.924 78.947 C 68.829 78.930,68.712 78.871,68.667 78.814 C 68.589 78.720,67.079 77.869,60.316 74.112 C 58.886 73.317,57.636 72.667,57.538 72.667 C 57.441 72.667,57.336 72.606,57.306 72.532 C 57.275 72.458,56.575 72.033,55.750 71.587 C 54.925 71.141,53.987 70.628,53.667 70.448 C 48.073 67.306,41.340 63.667,41.122 63.667 C 40.356 63.667,40.243 68.373,40.956 70.583 C 41.015 70.767,41.047 71.034,41.027 71.178 C 40.994 71.408,41.172 73.116,41.409 74.833 C 41.453 75.154,41.527 75.867,41.574 76.417 C 41.621 76.967,41.776 78.467,41.919 79.750 C 42.167 81.985,42.501 85.160,42.835 88.456 C 42.974 89.832,43.538 95.007,43.992 99.083 C 44.084 99.908,44.274 101.708,44.415 103.083 C 44.702 105.878,44.752 106.339,45.106 109.417 C 45.243 110.608,45.421 112.258,45.502 113.083 C 45.662 114.727,46.168 119.481,46.601 123.417 C 47.048 127.478,47.057 127.541,47.345 129.188 C 47.478 129.950,47.564 131.968,47.571 134.500 L 47.583 138.583 46.724 140.929 C 43.677 149.244,41.274 158.337,39.834 167.000 C 39.643 168.146,39.444 169.301,39.392 169.567 L 39.296 170.051 26.940 169.942 C 20.144 169.883,11.302 169.785,7.292 169.725 L 0.000 169.616 0.000 170.813 C -0.000 172.170,-0.467 171.356,3.917 177.641 C 5.017 179.219,7.731 183.113,9.949 186.296 C 12.167 189.479,15.054 193.619,16.366 195.495 C 17.677 197.372,20.494 201.422,22.627 204.495 C 24.759 207.569,26.686 210.293,26.910 210.549 C 27.133 210.805,27.320 211.068,27.326 211.132 C 27.338 211.286,31.953 217.929,32.263 218.239 C 32.393 218.369,32.500 218.520,32.500 218.573 C 32.500 218.752,35.883 223.575,36.707 224.571 C 37.157 225.114,38.034 226.427,38.655 227.488 C 39.277 228.549,40.228 230.155,40.768 231.057 C 41.308 231.959,41.930 233.000,42.149 233.370 C 42.369 233.740,42.990 235.589,43.530 237.480 C 45.767 245.307,48.842 253.941,51.135 258.833 C 51.457 259.521,51.727 260.123,51.735 260.171 C 51.743 260.220,51.999 260.801,52.304 261.462 C 52.837 262.617,52.819 263.227,52.254 263.169 C 52.060 263.149,50.057 264.294,41.167 269.500 C 39.149 270.682,31.695 275.019,25.687 278.507 C 20.921 281.275,20.876 281.362,23.561 282.654 C 24.490 283.101,28.925 285.282,33.417 287.501 C 37.908 289.720,42.108 291.778,42.750 292.074 C 43.872 292.592,48.337 294.773,51.375 296.288 C 52.177 296.688,52.834 296.956,52.836 296.883 C 52.837 296.810,52.894 296.834,52.961 296.937 C 53.117 297.176,55.414 298.333,55.732 298.333 C 55.864 298.333,55.997 298.390,56.028 298.458 C 56.058 298.527,56.533 298.802,57.083 299.070 C 64.049 302.457,65.834 303.299,65.836 303.200 C 65.837 303.136,65.894 303.168,65.961 303.272 C 66.100 303.487,76.472 308.541,76.792 308.550 C 76.906 308.553,77.000 308.607,77.000 308.670 C 77.000 308.784,80.672 310.500,80.916 310.500 C 80.987 310.500,81.553 310.759,82.175 311.076 C 82.796 311.393,84.042 311.910,84.944 312.224 C 89.903 313.956,90.155 314.096,93.258 316.840 C 94.812 318.215,97.485 320.444,99.199 321.795 C 100.912 323.145,102.318 324.352,102.324 324.476 C 102.329 324.600,101.687 326.135,100.897 327.888 C 100.106 329.640,99.446 331.150,99.430 331.245 C 99.414 331.339,99.314 331.574,99.208 331.767 C 99.033 332.084,96.479 337.829,94.250 342.917 C 93.769 344.017,92.496 346.904,91.423 349.333 C 90.350 351.762,89.457 353.825,89.440 353.917 C 89.422 354.008,89.357 354.164,89.294 354.264 C 89.232 354.363,88.536 355.938,87.747 357.764 C 86.319 361.068,85.804 362.235,85.451 362.969 C 84.986 363.935,85.685 364.091,88.333 363.613 C 89.204 363.455,90.517 363.218,91.250 363.086 C 91.983 362.954,94.271 362.540,96.333 362.166 C 98.396 361.793,100.533 361.409,101.083 361.314 C 101.633 361.220,102.196 361.100,102.333 361.049 C 102.471 360.997,102.846 360.926,103.167 360.891 C 103.487 360.856,104.350 360.714,105.083 360.577 C 105.817 360.440,106.829 360.255,107.333 360.167 C 107.837 360.078,108.850 359.896,109.583 359.761 C 110.317 359.627,112.454 359.243,114.333 358.907 C 116.212 358.571,117.871 358.233,118.020 358.154 C 118.168 358.076,118.331 358.053,118.381 358.103 C 118.431 358.153,119.060 358.080,119.778 357.941 C 120.496 357.802,121.796 357.562,122.667 357.408 C 123.537 357.255,124.550 357.049,124.917 356.952 C 125.283 356.854,125.645 356.789,125.720 356.808 C 125.795 356.826,126.657 356.683,127.636 356.491 C 129.588 356.107,130.004 356.033,130.750 355.938 C 131.025 355.903,131.700 355.776,132.250 355.656 C 132.800 355.537,133.304 355.452,133.371 355.468 C 133.437 355.484,134.037 355.380,134.704 355.236 C 135.371 355.092,136.212 354.937,136.574 354.893 C 136.935 354.848,137.356 354.744,137.510 354.661 C 137.664 354.579,137.825 354.547,137.869 354.591 C 137.912 354.634,138.503 354.561,139.182 354.427 C 140.473 354.172,146.460 353.084,147.941 352.834 C 148.413 352.755,149.200 352.571,149.691 352.425 C 150.665 352.136,153.823 351.726,156.833 351.498 C 158.634 351.362,158.876 351.382,160.833 351.834 C 164.387 352.654,166.038 353.020,166.486 353.088 C 166.723 353.123,167.292 353.221,167.750 353.304 C 171.727 354.025,175.041 354.538,177.772 354.854 L 179.461 355.049 179.636 356.233 C 179.800 357.340,179.980 359.028,180.342 362.833 C 180.425 363.704,180.640 365.692,180.819 367.250 C 180.999 368.808,181.265 371.208,181.409 372.583 C 181.553 373.958,181.786 376.123,181.925 377.395 C 182.065 378.666,182.208 380.016,182.243 380.395 C 182.347 381.505,182.503 382.982,182.676 384.500 C 182.766 385.279,182.909 386.629,182.995 387.500 C 183.207 389.649,183.821 395.543,183.947 396.638 C 184.054 397.570,184.328 398.000,184.816 398.000 C 185.144 398.000,185.973 397.315,192.689 391.500 C 197.402 387.419,201.324 384.032,206.500 379.575 C 214.683 372.528,217.763 369.866,218.667 369.057 C 218.804 368.934,220.379 367.589,222.167 366.067 C 223.954 364.545,225.582 363.120,225.784 362.900 C 225.986 362.680,226.193 362.500,226.245 362.500 C 226.399 362.500,233.498 356.378,234.583 355.310 C 236.009 353.906,242.258 349.367,243.063 349.150 C 245.798 348.413,253.082 345.794,257.583 343.929 C 259.676 343.062,259.482 343.008,260.347 344.703 C 260.614 345.227,261.065 345.827,261.349 346.037 C 261.632 346.246,262.551 347.279,263.390 348.333 C 266.423 352.141,273.883 361.422,274.107 361.667 C 274.233 361.804,277.268 365.592,280.850 370.083 C 286.988 377.779,287.868 378.833,288.153 378.833 C 288.710 378.833,288.788 378.606,293.246 363.917 C 293.858 361.900,294.760 358.938,295.251 357.333 C 297.028 351.526,297.682 349.353,297.742 349.055 C 297.776 348.887,297.917 348.412,298.055 348.000 C 298.342 347.143,299.385 343.732,301.340 337.250 C 302.087 334.775,303.060 331.550,303.503 330.083 C 303.946 328.617,304.908 325.429,305.642 323.000 C 306.375 320.571,307.130 318.096,307.319 317.500 C 307.508 316.904,307.663 316.251,307.665 316.047 C 307.667 315.548,307.991 314.614,309.380 311.093 L 310.560 308.103 313.040 305.440 C 316.669 301.545,321.667 295.599,321.667 295.177 C 321.667 295.079,321.739 295.000,321.827 295.000 C 322.019 295.000,324.500 291.759,324.500 291.508 C 324.500 291.412,324.566 291.333,324.646 291.333 C 324.794 291.333,328.028 286.794,329.004 285.216 L 329.540 284.349 330.478 284.813 C 330.994 285.069,334.867 286.723,339.083 288.488 C 343.300 290.254,346.863 291.756,347.001 291.825 C 347.308 291.980,349.987 293.113,360.806 297.660 C 366.243 299.945,369.352 301.168,369.639 301.135 C 370.267 301.062,370.272 300.654,369.682 297.734 C 369.151 295.106,368.792 293.155,368.414 290.833 C 367.978 288.164,367.816 287.274,367.744 287.157 C 367.704 287.093,367.558 286.225,367.420 285.228 C 367.159 283.353,366.322 278.564,365.923 276.667 C 365.798 276.071,365.605 275.133,365.495 274.583 C 365.385 274.033,365.234 273.358,365.159 273.083 C 365.084 272.808,364.901 271.908,364.752 271.083 C 364.603 270.258,364.375 269.096,364.245 268.500 C 364.115 267.904,363.593 265.504,363.085 263.167 C 362.577 260.829,361.968 258.129,361.732 257.167 C 361.497 256.204,361.278 255.229,361.246 255.000 C 361.159 254.383,360.763 252.705,359.658 248.277 C 359.113 246.091,358.666 244.104,358.666 243.860 C 358.666 243.616,358.485 242.742,358.265 241.917 C 358.044 241.092,357.587 238.917,357.248 237.083 C 356.910 235.250,356.597 233.692,356.554 233.620 C 356.510 233.549,356.446 233.286,356.412 233.037 C 356.377 232.787,356.192 231.871,356.001 231.000 C 355.809 230.129,355.583 229.079,355.500 228.667 C 355.416 228.254,355.150 227.017,354.909 225.917 C 354.668 224.817,354.421 223.654,354.360 223.333 C 354.209 222.534,354.221 219.601,354.380 218.583 C 354.451 218.125,354.580 216.887,354.666 215.833 C 354.752 214.779,354.897 213.129,354.989 212.167 C 355.080 211.204,355.198 209.861,355.250 209.183 C 355.302 208.504,355.375 207.901,355.411 207.842 C 355.448 207.783,355.521 206.698,355.575 205.430 C 355.629 204.162,355.708 203.068,355.750 203.000 C 355.792 202.931,355.869 202.100,355.920 201.152 C 356.016 199.389,356.106 199.174,356.750 199.169 C 357.060 199.167,359.914 198.647,362.833 198.060 C 363.521 197.922,364.382 197.772,364.747 197.726 C 365.113 197.680,365.495 197.574,365.596 197.489 C 365.698 197.405,365.818 197.374,365.864 197.420 C 365.942 197.497,367.990 197.142,373.583 196.083 C 374.775 195.857,377.175 195.404,378.917 195.077 C 380.658 194.750,383.658 194.183,385.583 193.818 C 387.508 193.452,389.646 193.052,390.333 192.928 C 398.746 191.422,398.522 192.147,392.467 186.025 C 389.960 183.490,386.074 179.542,383.832 177.250 C 381.589 174.958,377.801 171.096,375.414 168.667 C 373.026 166.237,367.550 160.650,363.245 156.250 C 355.005 147.829,352.247 145.050,350.952 143.861 C 350.520 143.464,349.547 142.383,348.791 141.460 C 348.035 140.536,346.985 139.286,346.457 138.682 C 344.184 136.082,344.006 135.806,342.846 133.083 C 339.350 124.883,335.119 116.794,330.879 110.202 L 329.990 108.821 330.953 107.721 C 331.483 107.115,332.519 105.937,333.256 105.102 C 333.993 104.267,335.829 102.158,337.337 100.417 C 338.845 98.675,340.905 96.306,341.914 95.152 C 346.355 90.078,348.155 88.011,351.334 84.333 C 353.196 82.179,355.364 79.677,356.152 78.773 C 358.428 76.160,359.500 74.820,359.500 74.589 C 359.500 74.064,358.810 73.908,354.333 73.421 C 353.004 73.276,351.392 73.087,350.750 73.000 C 350.108 72.913,348.833 72.761,347.917 72.662 C 347.000 72.563,345.238 72.370,344.000 72.233 C 342.762 72.096,341.112 71.920,340.333 71.841 C 339.554 71.763,338.279 71.616,337.500 71.514 C 335.651 71.272,333.946 71.069,331.083 70.747 C 329.800 70.603,327.850 70.376,326.750 70.244 C 325.650 70.111,324.337 69.974,323.833 69.939 C 323.329 69.904,322.804 69.837,322.667 69.791 C 322.529 69.744,321.254 69.581,319.833 69.427 C 318.412 69.274,316.350 69.044,315.250 68.916 C 314.150 68.788,312.200 68.563,310.917 68.415 C 309.633 68.268,308.096 68.080,307.500 67.998 C 306.904 67.916,305.929 67.802,305.333 67.744 C 304.737 67.687,304.063 67.612,303.833 67.578 C 303.604 67.544,302.779 67.438,302.000 67.341 C 298.076 66.855,295.909 66.624,294.167 66.504 C 290.347 66.240,289.289 65.892,286.333 63.926 C 280.157 59.818,274.646 56.505,270.917 54.659 C 270.092 54.251,269.379 53.872,269.333 53.818 C 269.094 53.533,261.888 50.178,258.251 48.658 L 255.585 47.544 255.593 46.230 C 255.597 45.508,255.734 43.829,255.896 42.500 C 256.058 41.171,256.302 39.071,256.438 37.833 C 256.574 36.596,256.751 35.058,256.830 34.417 C 256.909 33.775,257.090 32.237,257.231 31.000 C 257.372 29.762,257.639 27.475,257.826 25.917 C 258.012 24.358,258.280 22.071,258.420 20.833 C 258.561 19.596,258.745 18.058,258.828 17.417 C 258.912 16.775,259.025 15.800,259.080 15.250 C 259.134 14.700,259.247 13.725,259.331 13.083 C 259.486 11.893,259.849 8.702,260.160 5.801 C 260.542 2.240,260.651 2.256,255.500 5.130 C 252.771 6.653,253.558 6.221,244.333 11.257 C 240.162 13.533,236.712 15.438,236.666 15.490 C 236.620 15.541,235.945 15.914,235.166 16.317 C 234.387 16.721,229.214 19.523,223.670 22.544 C 218.127 25.564,213.139 28.279,212.587 28.576 C 204.950 32.683,202.600 33.979,201.798 34.523 C 201.274 34.879,200.262 35.445,199.548 35.781 L 198.250 36.393 192.333 36.514 C 189.079 36.580,186.267 36.678,186.083 36.730 C 185.900 36.783,184.489 36.904,182.947 36.999 C 181.405 37.094,179.605 37.244,178.947 37.332 C 178.289 37.420,176.775 37.612,175.583 37.758 C 173.135 38.060,167.546 38.991,165.167 39.494 C 162.592 40.038,162.875 40.214,161.760 37.375 C 160.818 34.979,159.154 30.749,156.827 24.833 C 156.196 23.229,154.807 19.704,153.741 17.000 C 150.692 9.263,150.096 7.745,149.094 5.167 C 147.222 0.351,147.008 0.015,146.278 0.746 M148.963 12.012 C 149.911 14.343,153.317 22.737,156.532 30.667 C 159.746 38.596,162.461 45.175,162.564 45.286 C 162.710 45.445,163.095 45.417,164.334 45.155 C 173.896 43.136,182.772 42.105,192.750 41.852 L 197.417 41.734 198.833 41.016 C 199.612 40.621,200.400 40.163,200.583 39.999 C 200.955 39.666,255.943 9.667,256.182 9.667 C 256.386 9.667,256.570 7.747,254.259 29.706 C 253.054 41.158,252.198 49.975,252.217 50.748 L 252.250 52.080 253.833 52.721 C 263.743 56.728,272.661 61.385,281.380 67.107 C 283.102 68.236,284.664 69.242,284.850 69.342 C 285.373 69.622,289.289 70.333,290.326 70.337 C 291.481 70.341,353.291 77.569,353.439 77.717 C 353.499 77.777,353.106 78.331,352.565 78.949 C 347.884 84.307,327.212 107.863,326.315 108.863 C 324.892 110.447,324.817 109.990,327.098 113.604 C 331.079 119.908,334.592 126.475,337.693 133.410 C 339.139 136.643,339.434 137.178,340.223 137.994 C 340.714 138.501,341.866 139.817,342.785 140.917 C 343.772 142.100,350.734 149.181,359.825 158.250 C 380.306 178.680,391.277 189.829,391.044 189.973 C 390.941 190.037,382.020 191.689,371.220 193.644 C 360.420 195.599,351.524 197.255,351.451 197.323 C 351.379 197.392,351.247 198.416,351.158 199.599 C 351.070 200.782,350.883 203.175,350.744 204.917 C 350.510 207.841,350.341 209.997,350.075 213.417 C 350.018 214.150,349.866 215.517,349.737 216.454 C 349.409 218.828,349.564 220.000,351.140 227.083 C 351.874 230.383,352.628 233.908,352.815 234.917 C 353.377 237.949,354.424 242.574,355.241 245.638 C 356.085 248.799,359.327 262.726,360.247 267.144 C 360.565 268.669,361.132 271.379,361.506 273.167 C 361.881 274.954,362.442 277.879,362.752 279.667 C 363.744 285.376,364.655 290.272,365.253 293.107 C 365.903 296.195,365.899 296.167,365.660 296.167 C 365.564 296.167,361.308 294.411,356.202 292.265 C 351.095 290.119,342.633 286.563,337.398 284.363 C 332.162 282.163,327.572 280.207,327.196 280.015 C 326.326 279.571,326.000 279.571,326.000 280.017 C 326.000 281.424,315.797 294.645,309.471 301.434 L 307.901 303.119 306.599 306.512 C 305.883 308.379,305.189 310.438,305.056 311.088 C 304.664 313.009,287.403 371.893,287.213 371.957 C 287.118 371.989,281.254 364.895,274.182 356.192 C 267.111 347.490,261.196 340.336,261.038 340.294 C 260.879 340.252,260.492 339.717,260.176 339.106 C 259.528 337.850,259.056 337.273,258.775 337.391 C 258.669 337.435,257.510 337.927,256.199 338.485 C 252.943 339.870,248.527 341.517,244.846 342.718 C 242.493 343.486,241.636 343.843,241.179 344.246 C 240.851 344.535,239.758 345.364,238.750 346.087 C 236.116 347.977,235.591 348.401,233.917 349.999 C 228.984 354.707,186.333 391.655,186.333 391.221 C 186.334 390.635,181.790 351.374,181.638 350.650 L 181.443 349.718 178.346 349.353 C 174.120 348.854,168.719 347.955,164.917 347.116 C 160.777 346.202,155.750 346.287,152.167 347.332 C 151.234 347.603,90.321 359.333,89.842 359.333 C 89.526 359.333,89.592 359.179,97.806 340.542 C 102.282 330.386,105.994 321.881,106.054 321.641 C 106.155 321.239,106.011 321.091,104.207 319.738 C 101.878 317.992,98.062 314.924,95.755 312.943 C 93.947 311.391,93.428 311.139,88.833 309.587 C 87.688 309.200,86.418 308.714,86.013 308.507 C 85.608 308.300,84.895 308.003,84.430 307.846 C 83.301 307.467,27.314 282.006,27.021 281.739 C 26.738 281.481,24.973 282.580,42.598 272.034 C 50.581 267.258,57.192 263.252,57.288 263.133 C 57.417 262.974,57.178 262.302,56.380 260.583 C 53.140 253.609,50.156 245.487,47.938 237.610 C 47.316 235.399,47.067 234.776,46.407 233.784 C 45.973 233.132,45.020 231.583,44.289 230.341 C 42.690 227.627,42.123 226.770,41.418 226.000 C 39.908 224.351,4.926 175.228,4.921 174.750 L 4.917 174.250 10.333 174.148 C 13.313 174.092,21.337 173.954,28.167 173.840 C 34.996 173.727,41.331 173.585,42.244 173.525 L 43.906 173.417 44.350 170.750 C 45.787 162.141,48.276 152.491,51.105 144.567 L 52.186 141.538 52.024 137.311 C 51.934 134.986,51.785 132.858,51.691 132.583 C 51.597 132.308,51.404 130.996,51.262 129.667 C 50.192 119.674,44.815 70.638,44.743 70.208 C 44.674 69.802,44.713 69.667,44.896 69.667 C 45.031 69.667,53.078 73.950,62.779 79.186 C 72.480 84.421,80.567 88.763,80.750 88.834 C 80.933 88.905,81.642 89.309,82.326 89.732 C 83.009 90.154,83.652 90.500,83.755 90.500 C 83.858 90.500,85.624 88.831,87.679 86.792 C 91.882 82.622,95.077 79.727,98.745 76.765 C 101.942 74.184,104.513 71.353,106.989 67.687 C 107.214 67.355,108.087 66.221,108.929 65.167 C 110.746 62.894,112.333 60.700,112.333 60.461 C 112.333 60.133,146.885 7.656,147.062 7.715 C 147.160 7.748,148.016 9.681,148.963 12.012 M193.000 93.408 C 135.932 97.324,92.751 144.197,93.883 201.000 C 95.186 266.423,155.195 314.900,219.500 302.479 C 282.152 290.376,319.828 225.450,299.327 164.913 C 284.102 119.953,239.848 90.193,193.000 93.408 M205.167 99.009 C 206.037 99.087,207.650 99.225,208.750 99.316 C 232.702 101.286,256.877 113.409,273.438 131.757 C 295.952 156.699,304.672 191.144,296.642 223.417 C 279.880 290.779,201.567 321.502,143.718 283.410 C 83.372 243.675,83.414 154.876,143.797 115.262 C 161.734 103.495,185.382 97.232,205.167 99.009 M162.883 143.121 C 162.669 143.160,161.599 144.208,160.317 145.636 C 157.606 148.654,155.586 150.883,154.167 152.422 C 151.865 154.918,147.757 159.388,144.905 162.500 C 143.267 164.287,141.581 166.125,141.157 166.583 C 139.670 168.192,136.047 172.133,132.267 176.255 C 130.167 178.544,128.065 180.829,127.595 181.333 C 127.126 181.838,125.066 184.088,123.018 186.333 C 120.970 188.579,119.135 190.568,118.939 190.753 C 118.111 191.535,116.000 194.021,116.000 194.215 C 116.000 194.591,117.227 196.142,119.191 198.250 C 119.618 198.708,122.356 201.825,125.275 205.176 C 137.242 218.913,139.574 221.589,142.983 225.496 C 144.944 227.744,148.994 232.380,151.983 235.799 C 154.971 239.218,157.440 242.143,157.469 242.299 C 157.958 244.952,158.984 245.599,162.928 245.740 C 170.005 245.993,238.998 246.209,239.277 245.980 C 239.431 245.853,240.793 244.287,242.304 242.500 C 243.815 240.713,245.595 238.650,246.259 237.917 C 246.923 237.183,249.851 233.846,252.765 230.500 C 255.679 227.154,259.046 223.292,260.248 221.917 C 263.792 217.862,271.364 209.181,274.566 205.500 C 276.200 203.621,277.970 201.596,278.499 201.000 C 284.991 193.678,284.528 194.451,283.303 192.979 C 282.828 192.409,281.720 191.186,280.841 190.262 C 279.295 188.639,278.225 187.479,269.840 178.333 C 265.259 173.338,261.487 169.233,257.347 164.741 C 256.438 163.755,250.679 157.475,244.500 150.734 C 242.804 148.884,240.704 146.578,239.833 145.610 C 238.869 144.538,238.087 143.815,237.833 143.760 C 237.404 143.667,208.543 143.409,180.500 143.247 C 171.746 143.197,164.283 143.133,163.917 143.105 C 163.550 143.077,163.085 143.085,162.883 143.121 M191.292 150.437 L 195.501 150.550 195.459 195.483 L 195.417 240.417 188.583 240.525 C 184.825 240.585,177.459 240.667,172.215 240.708 L 162.680 240.781 161.206 239.099 C 160.396 238.174,158.383 235.804,156.732 233.833 C 148.347 223.820,132.404 204.825,129.757 201.694 C 126.081 197.346,124.668 195.618,124.667 195.472 C 124.666 195.321,126.131 193.638,133.578 185.229 C 137.059 181.299,144.443 172.946,149.989 166.667 C 155.534 160.387,161.086 154.101,162.327 152.696 L 164.583 150.143 175.833 150.234 C 182.021 150.284,188.977 150.375,191.292 150.437 M237.917 155.118 C 240.300 157.819,243.487 161.434,245.000 163.151 C 250.468 169.360,269.252 190.615,270.422 191.917 C 272.563 194.299,273.330 195.245,273.327 195.500 C 273.323 195.787,273.126 196.029,264.422 206.368 C 260.850 210.611,253.078 219.858,247.150 226.917 C 241.221 233.975,236.119 239.986,235.811 240.275 L 235.250 240.801 222.083 240.659 C 214.842 240.581,207.398 240.514,205.542 240.509 L 202.167 240.500 202.167 195.500 L 202.167 150.500 204.458 150.477 C 205.719 150.464,209.825 150.402,213.583 150.339 C 217.342 150.275,223.379 150.220,227.000 150.216 L 233.583 150.208 237.917 155.118 " stroke="none" fill="#fafbfb" fill-rule="evenodd"></path><path id="path1" d="M129.609 33.973 C 120.107 48.447,112.333 60.367,112.333 60.461 C 112.333 60.700,110.746 62.894,108.929 65.167 C 108.087 66.221,107.214 67.355,106.989 67.687 C 104.513 71.353,101.942 74.184,98.745 76.765 C 95.077 79.727,91.882 82.622,87.679 86.792 C 85.624 88.831,83.858 90.500,83.755 90.500 C 83.652 90.500,83.009 90.154,82.326 89.732 C 81.642 89.309,80.933 88.905,80.750 88.834 C 80.567 88.763,72.480 84.421,62.779 79.186 C 53.078 73.950,45.031 69.667,44.896 69.667 C 44.713 69.667,44.674 69.802,44.743 70.208 C 44.815 70.638,50.192 119.674,51.262 129.667 C 51.404 130.996,51.597 132.308,51.691 132.583 C 51.785 132.858,51.934 134.986,52.024 137.311 L 52.186 141.538 51.105 144.567 C 48.276 152.491,45.787 162.141,44.350 170.750 L 43.906 173.417 42.244 173.525 C 41.331 173.585,34.996 173.727,28.167 173.840 C 21.337 173.954,13.313 174.092,10.333 174.148 L 4.917 174.250 4.921 174.750 C 4.926 175.228,39.908 224.351,41.418 226.000 C 42.123 226.770,42.690 227.627,44.289 230.341 C 45.020 231.583,45.973 233.132,46.407 233.784 C 47.067 234.776,47.316 235.399,47.938 237.610 C 50.156 245.487,53.140 253.609,56.380 260.583 C 57.178 262.302,57.417 262.974,57.288 263.133 C 57.192 263.252,50.581 267.258,42.598 272.034 C 24.973 282.580,26.738 281.481,27.021 281.739 C 27.314 282.006,83.301 307.467,84.430 307.846 C 84.895 308.003,85.608 308.300,86.013 308.507 C 86.418 308.714,87.688 309.200,88.833 309.587 C 93.428 311.139,93.947 311.391,95.755 312.943 C 98.062 314.924,101.878 317.992,104.207 319.738 C 106.011 321.091,106.155 321.239,106.054 321.641 C 105.994 321.881,102.282 330.386,97.806 340.542 C 89.592 359.179,89.526 359.333,89.842 359.333 C 90.321 359.333,151.234 347.603,152.167 347.332 C 155.750 346.287,160.777 346.202,164.917 347.116 C 168.719 347.955,174.120 348.854,178.346 349.353 L 181.443 349.718 181.638 350.650 C 181.790 351.374,186.334 390.635,186.333 391.221 C 186.333 391.655,228.984 354.707,233.917 349.999 C 235.591 348.401,236.116 347.977,238.750 346.087 C 239.758 345.364,240.851 344.535,241.179 344.246 C 241.636 343.843,242.493 343.486,244.846 342.718 C 248.527 341.517,252.943 339.870,256.199 338.485 C 257.510 337.927,258.669 337.435,258.775 337.391 C 259.056 337.273,259.528 337.850,260.176 339.106 C 260.492 339.717,260.879 340.252,261.038 340.294 C 261.196 340.336,267.111 347.490,274.182 356.192 C 281.254 364.895,287.118 371.989,287.213 371.957 C 287.403 371.893,304.664 313.009,305.056 311.088 C 305.189 310.438,305.883 308.379,306.599 306.512 L 307.901 303.119 309.471 301.434 C 315.797 294.645,326.000 281.424,326.000 280.017 C 326.000 279.571,326.326 279.571,327.196 280.015 C 327.572 280.207,332.162 282.163,337.398 284.363 C 342.633 286.563,351.095 290.119,356.202 292.265 C 361.308 294.411,365.564 296.167,365.660 296.167 C 365.899 296.167,365.903 296.195,365.253 293.107 C 364.655 290.272,363.744 285.376,362.752 279.667 C 362.442 277.879,361.881 274.954,361.506 273.167 C 361.132 271.379,360.565 268.669,360.247 267.144 C 359.327 262.726,356.085 248.799,355.241 245.638 C 354.424 242.574,353.377 237.949,352.815 234.917 C 352.628 233.908,351.874 230.383,351.140 227.083 C 349.564 220.000,349.409 218.828,349.737 216.454 C 349.866 215.517,350.018 214.150,350.075 213.417 C 350.341 209.997,350.510 207.841,350.744 204.917 C 350.883 203.175,351.070 200.782,351.158 199.599 C 351.247 198.416,351.379 197.392,351.451 197.323 C 351.524 197.255,360.420 195.599,371.220 193.644 C 382.020 191.689,390.941 190.037,391.044 189.973 C 391.277 189.829,380.306 178.680,359.825 158.250 C 350.734 149.181,343.772 142.100,342.785 140.917 C 341.866 139.817,340.714 138.501,340.223 137.994 C 339.434 137.178,339.139 136.643,337.693 133.410 C 334.592 126.475,331.079 119.908,327.098 113.604 C 324.817 109.990,324.892 110.447,326.315 108.863 C 327.212 107.863,347.884 84.307,352.565 78.949 C 353.106 78.331,353.499 77.777,353.439 77.717 C 353.291 77.569,291.481 70.341,290.326 70.337 C 289.289 70.333,285.373 69.622,284.850 69.342 C 284.664 69.242,283.102 68.236,281.380 67.107 C 272.661 61.385,263.743 56.728,253.833 52.721 L 252.250 52.080 252.217 50.748 C 252.198 49.975,253.054 41.158,254.259 29.706 C 256.570 7.747,256.386 9.667,256.182 9.667 C 255.943 9.667,200.955 39.666,200.583 39.999 C 200.400 40.163,199.612 40.621,198.833 41.016 L 197.417 41.734 192.750 41.852 C 182.772 42.105,173.896 43.136,164.334 45.155 C 163.095 45.417,162.710 45.445,162.564 45.286 C 162.461 45.175,159.746 38.596,156.532 30.667 C 147.373 8.075,147.250 7.778,147.062 7.715 C 146.964 7.682,139.110 19.498,129.609 33.973 M207.083 93.499 C 269.174 98.222,313.608 154.786,303.487 216.219 C 294.894 268.380,248.170 306.489,195.459 304.332 C 129.569 301.635,82.373 240.751,96.235 176.331 C 107.230 125.235,155.001 89.538,207.083 93.499 M175.667 130.830 C 175.438 131.011,175.156 131.161,175.042 131.163 C 174.927 131.165,174.833 131.243,174.833 131.337 C 174.833 131.435,175.010 131.462,175.252 131.401 C 175.488 131.342,175.776 131.383,175.911 131.495 C 176.043 131.605,176.304 131.645,176.492 131.586 C 176.887 131.460,176.913 131.542,176.625 132.007 C 176.343 132.462,176.695 132.683,177.386 132.485 C 178.376 132.201,178.353 131.646,177.342 131.443 C 177.002 131.375,176.842 131.234,176.804 130.965 C 176.733 130.467,176.205 130.404,175.667 130.830 M223.444 130.611 C 223.383 130.672,223.333 130.862,223.333 131.032 C 223.333 131.242,223.174 131.374,222.837 131.441 C 221.682 131.672,221.900 132.500,223.115 132.500 C 223.657 132.500,223.885 132.155,223.500 131.917 C 223.226 131.748,223.311 131.476,223.625 131.516 C 223.994 131.563,224.833 131.333,224.833 131.186 C 224.833 130.780,223.731 130.324,223.444 130.611 M174.335 133.203 L 173.991 133.573 174.334 133.699 C 174.898 133.908,175.863 133.625,176.019 133.205 C 176.222 132.656,174.846 132.655,174.335 133.203 M224.267 133.098 C 224.119 133.484,224.253 133.610,224.922 133.719 C 225.856 133.870,226.235 133.672,225.908 133.204 C 225.586 132.745,224.431 132.671,224.267 133.098 M171.792 134.793 C 171.289 135.104,171.198 135.333,171.575 135.333 C 171.974 135.333,172.679 134.955,172.619 134.773 C 172.524 134.490,172.272 134.496,171.792 134.793 M227.611 134.611 C 227.396 134.826,227.505 134.969,228.025 135.150 C 228.921 135.463,229.136 135.375,228.583 134.922 C 228.070 134.501,227.806 134.417,227.611 134.611 M175.333 135.512 C 175.333 135.594,175.127 135.708,174.875 135.767 C 173.487 136.089,173.286 136.740,174.608 136.630 C 175.802 136.531,176.561 135.686,175.667 135.452 C 175.483 135.404,175.333 135.431,175.333 135.512 M224.172 135.708 C 224.184 136.179,224.670 136.541,225.400 136.624 C 226.983 136.802,227.000 136.290,225.429 135.771 C 224.443 135.446,224.165 135.432,224.172 135.708 M177.336 136.657 C 176.884 137.007,176.886 137.015,177.515 137.284 C 178.060 137.517,178.379 137.328,178.306 136.816 C 178.234 136.310,177.862 136.249,177.336 136.657 M219.944 136.444 C 219.883 136.506,219.833 136.682,219.833 136.837 C 219.833 137.012,219.628 137.177,219.292 137.273 C 218.608 137.468,218.433 138.112,219.031 138.233 C 219.854 138.401,220.037 138.312,219.934 137.795 C 219.853 137.392,219.885 137.327,220.127 137.399 C 220.682 137.566,221.111 137.066,220.752 136.669 C 220.443 136.327,220.145 136.244,219.944 136.444 M178.254 137.601 C 177.888 138.159,177.933 138.261,178.560 138.303 C 179.525 138.368,179.858 137.472,178.934 137.296 C 178.616 137.235,178.442 137.313,178.254 137.601 M176.316 138.729 C 175.495 139.142,175.990 139.638,177.002 139.416 C 177.565 139.293,177.708 139.135,177.574 138.786 C 177.463 138.495,176.837 138.467,176.316 138.729 M220.500 138.904 C 220.500 139.350,221.197 139.619,221.830 139.418 C 222.494 139.207,222.056 138.701,221.102 138.579 C 220.555 138.509,220.500 138.539,220.500 138.904 M167.349 138.876 C 166.782 139.023,166.514 139.414,166.791 139.691 C 166.995 139.895,169.195 139.498,169.280 139.243 C 169.365 138.987,167.954 138.719,167.349 138.876 M171.898 138.818 C 170.923 138.937,170.400 139.262,170.668 139.584 C 170.925 139.895,170.148 140.333,169.339 140.333 C 168.969 140.333,168.667 140.400,168.667 140.481 C 168.667 140.563,168.410 140.678,168.095 140.737 C 166.353 141.064,166.731 141.433,168.798 141.425 C 171.002 141.416,171.149 141.358,171.852 140.219 C 172.040 139.915,172.298 139.667,172.424 139.667 C 172.551 139.667,172.733 139.522,172.827 139.344 C 173.030 138.966,173.052 138.657,172.875 138.690 C 172.806 138.703,172.366 138.760,171.898 138.818 M227.167 138.843 C 227.167 139.175,227.510 139.667,227.742 139.667 C 227.869 139.667,228.127 139.915,228.314 140.219 C 229.018 141.358,229.166 141.416,231.338 141.417 C 233.375 141.417,233.861 141.041,232.223 140.734 C 231.913 140.676,231.567 140.501,231.454 140.345 C 231.141 139.912,230.752 139.715,230.883 140.056 C 231.023 140.419,230.499 140.428,229.813 140.073 C 229.415 139.867,229.349 139.765,229.499 139.584 C 229.647 139.406,229.604 139.302,229.303 139.111 C 228.812 138.800,227.167 138.594,227.167 138.843 M231.833 138.831 C 231.696 138.921,231.408 138.996,231.194 138.997 C 230.614 139.001,230.845 139.388,231.512 139.530 C 232.806 139.806,233.351 139.813,233.450 139.557 C 233.647 139.044,232.378 138.474,231.833 138.831 M230.028 139.313 C 229.847 139.427,229.852 139.472,230.056 139.550 C 230.193 139.602,230.347 139.538,230.398 139.406 C 230.501 139.138,230.360 139.102,230.028 139.313 M173.667 140.583 C 173.209 141.070,173.251 141.087,174.070 140.745 C 174.405 140.605,174.635 140.417,174.580 140.328 C 174.411 140.054,174.076 140.148,173.667 140.583 M223.712 140.302 C 223.569 140.393,223.658 140.521,224.003 140.725 C 224.527 141.035,224.727 140.793,224.300 140.367 C 224.067 140.134,223.990 140.125,223.712 140.302 M176.196 141.420 C 175.096 141.922,175.180 142.240,176.383 142.124 C 177.206 142.045,177.749 141.663,177.613 141.257 C 177.513 140.956,177.111 141.002,176.196 141.420 M220.590 141.156 C 220.422 141.427,220.807 141.987,221.235 142.094 C 221.756 142.225,222.501 142.124,222.547 141.917 C 222.618 141.593,220.764 140.874,220.590 141.156 M167.400 142.860 C 167.257 143.092,167.360 143.127,167.833 143.005 C 168.248 142.898,168.248 142.897,167.875 142.798 C 167.669 142.743,167.455 142.771,167.400 142.860 M166.417 143.000 C 166.360 143.092,166.468 143.167,166.657 143.167 C 166.846 143.167,167.000 143.092,167.000 143.000 C 167.000 142.908,166.892 142.833,166.760 142.833 C 166.628 142.833,166.473 142.908,166.417 143.000 M233.167 143.000 C 233.167 143.092,233.317 143.167,233.500 143.167 C 233.683 143.167,233.833 143.092,233.833 143.000 C 233.833 142.908,233.683 142.833,233.500 142.833 C 233.317 142.833,233.167 142.908,233.167 143.000 M162.327 152.696 C 161.086 154.101,155.534 160.387,149.989 166.667 C 144.443 172.946,137.059 181.299,133.578 185.229 C 126.131 193.638,124.666 195.321,124.667 195.472 C 124.668 195.618,126.081 197.346,129.757 201.694 C 132.404 204.825,148.347 223.820,156.732 233.833 C 158.383 235.804,160.396 238.174,161.206 239.099 L 162.680 240.781 172.215 240.708 C 177.459 240.667,184.825 240.585,188.583 240.525 L 195.417 240.417 195.459 195.483 L 195.501 150.550 191.292 150.437 C 188.977 150.375,182.021 150.284,175.833 150.234 L 164.583 150.143 162.327 152.696 M213.583 150.339 C 209.825 150.402,205.719 150.464,204.458 150.477 L 202.167 150.500 202.167 195.500 L 202.167 240.500 205.542 240.509 C 207.398 240.514,214.842 240.581,222.083 240.659 L 235.250 240.801 235.811 240.275 C 236.119 239.986,241.221 233.975,247.150 226.917 C 253.078 219.858,260.850 210.611,264.422 206.368 C 273.126 196.029,273.323 195.787,273.327 195.500 C 273.330 195.245,272.563 194.299,270.422 191.917 C 269.252 190.615,250.468 169.360,245.000 163.151 C 243.487 161.434,240.300 157.819,237.917 155.118 L 233.583 150.208 227.000 150.216 C 223.379 150.220,217.342 150.275,213.583 150.339 M116.833 196.492 C 116.833 196.588,116.900 196.667,116.982 196.667 C 117.064 196.667,117.173 196.835,117.225 197.042 C 117.471 198.012,118.852 198.930,118.828 198.107 C 118.821 197.879,118.249 197.167,118.072 197.167 C 118.004 197.167,117.697 196.975,117.391 196.742 C 117.084 196.508,116.833 196.395,116.833 196.492 M283.000 196.583 C 282.886 196.721,282.695 196.833,282.576 196.833 C 282.226 196.833,281.333 197.669,281.333 197.997 C 281.333 198.861,282.359 198.257,282.989 197.021 C 283.353 196.308,283.357 196.153,283.000 196.583 M288.253 201.553 C 288.191 201.845,288.140 202.321,288.140 202.612 C 288.141 202.916,288.040 203.179,287.904 203.232 C 287.416 203.419,287.603 204.806,288.190 205.355 C 288.477 205.623,288.756 205.799,288.810 205.746 C 288.863 205.692,288.808 205.587,288.686 205.512 C 288.530 205.416,288.512 205.284,288.625 205.063 C 288.899 204.524,288.882 201.221,288.604 201.114 C 288.442 201.052,288.332 201.190,288.253 201.553 M117.597 201.625 C 117.546 201.785,117.492 202.276,117.475 202.715 C 117.459 203.155,117.391 203.548,117.324 203.589 C 117.171 203.683,117.126 206.167,117.277 206.167 C 117.338 206.167,117.507 206.058,117.653 205.924 C 117.798 205.791,118.085 205.529,118.292 205.341 C 118.729 204.944,118.830 203.613,118.441 203.383 C 118.253 203.272,118.049 202.484,117.963 201.542 C 117.936 201.235,117.703 201.288,117.597 201.625 M111.215 201.780 C 111.168 201.904,111.169 202.157,111.218 202.343 C 111.266 202.529,111.236 202.922,111.150 203.216 C 110.947 203.915,110.810 206.167,110.972 206.167 C 111.916 206.167,112.928 203.896,112.238 203.324 C 112.095 203.204,112.014 202.965,112.059 202.792 C 112.256 202.041,111.475 201.105,111.215 201.780 M119.987 202.458 C 119.980 202.802,119.883 203.599,119.773 204.229 C 119.562 205.429,119.599 206.500,119.852 206.500 C 119.933 206.500,120.009 206.256,120.019 205.958 C 120.030 205.660,120.073 205.548,120.115 205.708 C 120.215 206.091,120.379 206.076,120.763 205.653 C 121.156 205.218,121.164 204.032,120.775 203.747 C 120.565 203.594,120.541 203.440,120.660 203.023 C 120.754 202.696,120.752 202.530,120.656 202.590 C 120.570 202.643,120.500 202.494,120.500 202.260 C 120.500 201.532,120.002 201.725,119.987 202.458 M277.607 202.416 C 277.548 202.569,277.500 202.942,277.500 203.246 C 277.500 203.583,277.403 203.835,277.250 203.894 C 276.862 204.042,276.927 205.192,277.348 205.644 C 277.624 205.941,277.744 205.977,277.933 205.820 C 278.128 205.658,278.163 205.691,278.127 206.001 C 278.103 206.210,278.177 206.413,278.292 206.454 C 278.433 206.504,278.500 206.339,278.500 205.944 C 278.500 205.624,278.406 205.323,278.292 205.277 C 278.142 205.216,278.135 205.153,278.269 205.054 C 278.371 204.979,278.438 204.767,278.417 204.583 C 278.230 202.893,278.100 202.120,278.036 202.311 C 277.979 202.481,277.929 202.488,277.836 202.338 C 277.748 202.195,277.683 202.217,277.607 202.416 M286.167 205.418 C 286.167 205.669,286.262 205.833,286.407 205.833 C 286.800 205.833,286.839 205.579,286.491 205.281 C 286.182 205.016,286.167 205.023,286.167 205.418 M112.667 205.500 C 112.667 205.592,112.548 205.667,112.403 205.667 C 112.062 205.667,112.191 206.067,112.555 206.137 C 112.757 206.176,112.833 206.073,112.833 205.762 C 112.833 205.526,112.796 205.333,112.750 205.333 C 112.704 205.333,112.667 205.408,112.667 205.500 M114.994 206.090 C 114.843 206.273,114.832 206.399,114.959 206.526 C 115.198 206.764,115.500 206.558,115.500 206.157 C 115.500 205.768,115.285 205.739,114.994 206.090 M282.695 206.195 C 282.725 206.409,282.856 206.583,282.986 206.583 C 283.373 206.583,283.380 206.204,282.997 205.998 C 282.676 205.826,282.646 205.846,282.695 206.195 M285.000 208.005 C 285.000 208.186,285.112 208.333,285.250 208.333 C 285.387 208.333,285.500 208.229,285.500 208.101 C 285.500 207.973,285.387 207.826,285.250 207.773 C 285.080 207.708,285.000 207.782,285.000 208.005 M112.667 217.917 C 112.498 218.120,112.506 218.167,112.712 218.167 C 112.851 218.167,113.008 218.054,113.060 217.917 C 113.113 217.779,113.093 217.667,113.015 217.667 C 112.938 217.667,112.781 217.779,112.667 217.917 M115.292 217.965 C 114.963 218.032,114.909 218.257,115.181 218.426 C 115.387 218.553,115.735 218.271,115.644 218.050 C 115.611 217.970,115.452 217.932,115.292 217.965 M231.166 247.585 C 230.750 248.085,231.339 248.595,231.800 248.133 C 232.078 247.855,232.051 247.705,231.684 247.509 C 231.450 247.384,231.316 247.404,231.166 247.585 M168.225 247.755 C 168.106 248.064,168.441 248.358,168.833 248.289 C 168.971 248.265,169.083 248.096,169.083 247.914 C 169.083 247.486,168.378 247.355,168.225 247.755 M205.359 251.481 C 204.993 251.712,205.203 252.244,205.682 252.300 C 206.169 252.357,206.586 251.964,206.441 251.585 C 206.336 251.312,205.719 251.252,205.359 251.481 " stroke="none" fill="#2c947c" fill-rule="evenodd"></path></g></svg>